<svg width="44" height="44" viewBox="0 0 44 44" fill="none" xmlns="http://www.w3.org/2000/svg">
<path fill-rule="evenodd" clip-rule="evenodd" d="M5.81517 9.48201C3.6665 11.6288 3.6665 15.0865 3.6665 22C3.6665 28.9135 3.6665 32.3712 5.81517 34.518C7.962 36.6667 11.4197 36.6667 18.3332 36.6667H25.6665C32.58 36.6667 36.0377 36.6667 38.1845 34.518C40.3332 32.3712 40.3332 28.9135 40.3332 22C40.3332 15.0865 40.3332 11.6288 38.1845 9.48201C36.0377 7.33334 32.58 7.33334 25.6665 7.33334H18.3332C11.4197 7.33334 7.962 7.33334 5.81517 9.48201ZM23.3748 18.3333C23.3748 17.9687 23.23 17.6189 22.9721 17.3611C22.7142 17.1032 22.3645 16.9583 21.9998 16.9583C21.6352 16.9583 21.2854 17.1032 21.0276 17.3611C20.7697 17.6189 20.6248 17.9687 20.6248 18.3333V19.6185L19.512 18.9768C19.1974 18.8093 18.83 18.7705 18.4874 18.8686C18.1447 18.9666 17.8535 19.194 17.6752 19.5026C17.4968 19.8112 17.4453 20.177 17.5315 20.5229C17.6176 20.8687 17.8347 21.1676 18.137 21.3565L19.2498 21.9982L18.137 22.6417C17.821 22.824 17.5903 23.1244 17.4957 23.4768C17.4012 23.8293 17.4505 24.2048 17.6328 24.5208C17.8152 24.8369 18.1156 25.0676 18.468 25.1621C18.8204 25.2567 19.196 25.2073 19.512 25.025L20.6248 24.3815V25.6667C20.6248 26.0313 20.7697 26.3811 21.0276 26.6389C21.2854 26.8968 21.6352 27.0417 21.9998 27.0417C22.3645 27.0417 22.7142 26.8968 22.9721 26.6389C23.23 26.3811 23.3748 26.0313 23.3748 25.6667V24.3833L24.4877 25.025C24.8037 25.2073 25.1793 25.2567 25.5317 25.1621C25.8841 25.0676 26.1845 24.8369 26.3668 24.5208C26.5492 24.2048 26.5985 23.8293 26.5039 23.4768C26.4094 23.1244 26.1787 22.824 25.8627 22.6417L24.7498 22L25.8627 21.3583C26.1787 21.176 26.4094 20.8756 26.5039 20.5232C26.5985 20.1708 26.5492 19.7952 26.3668 19.4792C26.1845 19.1631 25.8841 18.9325 25.5317 18.8379C25.1793 18.7434 24.8037 18.7927 24.4877 18.975L23.3748 19.6167V18.3333ZM12.3437 16.9583C12.7083 16.9583 13.0581 17.1032 13.3159 17.3611C13.5738 17.6189 13.7187 17.9687 13.7187 18.3333V19.6167L14.8297 18.975C15.1457 18.7927 15.5213 18.7434 15.8737 18.8379C16.2261 18.9325 16.5265 19.1631 16.7088 19.4792C16.8912 19.7952 16.9405 20.1708 16.8459 20.5232C16.7514 20.8756 16.5207 21.176 16.2047 21.3583L15.0918 22L16.2047 22.6417C16.3612 22.732 16.4983 22.8522 16.6084 22.9955C16.7184 23.1388 16.7991 23.3023 16.8459 23.4768C16.8928 23.6513 16.9047 23.8334 16.8812 24.0125C16.8577 24.1916 16.7991 24.3644 16.7088 24.5208C16.6186 24.6773 16.4983 24.8145 16.355 24.9245C16.2117 25.0346 16.0482 25.1153 15.8737 25.1621C15.6992 25.2089 15.5172 25.2209 15.338 25.1974C15.1589 25.1739 14.9862 25.1153 14.8297 25.025L13.7187 24.3833V25.6667C13.7187 26.0313 13.5738 26.3811 13.3159 26.6389C13.0581 26.8968 12.7083 27.0417 12.3437 27.0417C11.979 27.0417 11.6293 26.8968 11.3714 26.6389C11.1135 26.3811 10.9687 26.0313 10.9687 25.6667V24.3815L9.854 25.0232C9.5394 25.1907 9.17203 25.2295 8.82936 25.1315C8.48669 25.0334 8.19549 24.8061 8.01717 24.4974C7.83885 24.1888 7.78733 23.823 7.87349 23.4772C7.95965 23.1313 8.17674 22.8324 8.479 22.6435L9.59184 22L8.479 21.3583C8.32251 21.2681 8.18534 21.1478 8.07531 21.0045C7.96528 20.8612 7.88455 20.6977 7.83773 20.5232C7.79092 20.3487 7.77893 20.1667 7.80245 19.9875C7.82598 19.8084 7.88455 19.6357 7.97484 19.4792C8.06512 19.3227 8.18534 19.1855 8.32864 19.0755C8.47194 18.9655 8.63551 18.8847 8.81 18.8379C8.9845 18.7911 9.16651 18.7791 9.34564 18.8026C9.52477 18.8261 9.69751 18.8847 9.854 18.975L10.9687 19.6185V18.3333C10.9687 17.9687 11.1135 17.6189 11.3714 17.3611C11.6293 17.1032 11.979 16.9583 12.3437 16.9583ZM33.0328 18.3333C33.0328 17.9687 32.888 17.6189 32.6301 17.3611C32.3722 17.1032 32.0225 16.9583 31.6578 16.9583C31.2932 16.9583 30.9434 17.1032 30.6856 17.3611C30.4277 17.6189 30.2828 17.9687 30.2828 18.3333V19.6185L29.17 18.9768C28.8554 18.8093 28.488 18.7705 28.1454 18.8686C27.8027 18.9666 27.5115 19.194 27.3332 19.5026C27.1548 19.8112 27.1033 20.177 27.1895 20.5229C27.2756 20.8687 27.4927 21.1676 27.795 21.3565L28.9078 21.9982L27.7932 22.6417C27.4771 22.824 27.2465 23.1244 27.1519 23.4768C27.0574 23.8293 27.1067 24.2048 27.289 24.5208C27.4713 24.8369 27.7718 25.0676 28.1242 25.1621C28.4766 25.2567 28.8521 25.2073 29.1682 25.025L30.2828 24.3815V25.6667C30.2828 26.0313 30.4277 26.3811 30.6856 26.6389C30.9434 26.8968 31.2932 27.0417 31.6578 27.0417C32.0225 27.0417 32.3722 26.8968 32.6301 26.6389C32.888 26.3811 33.0328 26.0313 33.0328 25.6667V24.3833L34.1457 25.025C34.4617 25.2073 34.8373 25.2567 35.1897 25.1621C35.5421 25.0676 35.8425 24.8369 36.0248 24.5208C36.2072 24.2048 36.2565 23.8293 36.1619 23.4768C36.0674 23.1244 35.8367 22.824 35.5207 22.6417L34.4078 22L35.5207 21.3583C35.8367 21.176 36.0674 20.8756 36.1619 20.5232C36.2565 20.1708 36.2072 19.7952 36.0248 19.4792C35.8425 19.1631 35.5421 18.9325 35.1897 18.8379C34.8373 18.7434 34.4617 18.7927 34.1457 18.975L33.0328 19.6167V18.3333Z" fill="white"/>
</svg>
