<svg width="30" height="40" viewBox="0 0 30 40" fill="none" xmlns="http://www.w3.org/2000/svg">
<path d="M14.9999 0.833344C12.5688 0.833344 10.2372 1.79911 8.51811 3.5182C6.79902 5.23728 5.83325 7.56886 5.83325 10V13.6667H3.99992C3.02746 13.6667 2.09483 14.053 1.40719 14.7406C0.71956 15.4283 0.333252 16.3609 0.333252 17.3333V35.6667C0.333252 36.6391 0.71956 37.5718 1.40719 38.2594C2.09483 38.947 3.02746 39.3333 3.99992 39.3333H25.9999C26.9724 39.3333 27.905 38.947 28.5926 38.2594C29.2803 37.5718 29.6666 36.6391 29.6666 35.6667V17.3333C29.6666 16.3609 29.2803 15.4283 28.5926 14.7406C27.905 14.053 26.9724 13.6667 25.9999 13.6667H24.1666V10C24.1666 8.79623 23.9295 7.60423 23.4688 6.49208C23.0081 5.37993 22.3329 4.3694 21.4817 3.5182C20.6305 2.66699 19.62 1.99178 18.5079 1.53111C17.3957 1.07045 16.2037 0.833344 14.9999 0.833344ZM14.9999 4.31668C18.1349 4.31668 20.6833 6.86501 20.6833 10V13.6667H9.31658V10C9.31658 6.86501 11.8649 4.31668 14.9999 4.31668ZM15.3483 18.25C17.0716 18.25 18.4466 18.635 19.4366 19.3867C20.4266 20.1567 20.9216 21.1833 20.9216 22.4667C20.9216 23.2733 20.6466 23.9883 20.1149 24.6667C19.5833 25.3267 18.8866 25.84 18.0433 26.225C17.5666 26.5 17.2549 26.775 17.0899 27.0867C16.9249 27.4167 16.8333 27.82 16.8333 28.3333H13.1666C13.1666 27.4167 13.3499 26.7933 13.6983 26.3533C14.0833 25.9133 14.7066 25.4 15.6599 24.8133C16.1366 24.5567 16.5216 24.2267 16.8333 23.8233C17.0899 23.4383 17.2366 22.98 17.2366 22.4667C17.2366 21.9167 17.0716 21.5133 16.7416 21.2017C16.4116 20.8717 15.9166 20.725 15.3483 20.725C14.8533 20.725 14.4499 20.8533 14.0833 21.11C13.7899 21.3667 13.6066 21.7517 13.6066 22.265H9.99492C9.90325 21 10.4166 19.9 11.4249 19.24C12.4149 18.58 13.7166 18.25 15.3483 18.25ZM13.1666 30.1667H16.8333V33.8333H13.1666V30.1667Z" fill="white"/>
</svg>
