<svg width="16" height="19" viewBox="0 0 16 19" fill="none" xmlns="http://www.w3.org/2000/svg">
<path d="M3 7.4987V6.04036C3 3.20286 5.08583 0.832031 8 0.832031C10.9142 0.832031 13 3.20286 13 6.04036V7.4987H13.4167C13.9692 7.4987 14.4991 7.71819 14.8898 8.10889C15.2805 8.49959 15.5 9.0295 15.5 9.58203V16.2487C15.5 16.8012 15.2805 17.3311 14.8898 17.7218C14.4991 18.1125 13.9692 18.332 13.4167 18.332H2.58333C2.0308 18.332 1.5009 18.1125 1.11019 17.7218C0.719493 17.3311 0.5 16.8012 0.5 16.2487V9.58203C0.5 9.0295 0.719493 8.49959 1.11019 8.10889C1.5009 7.71819 2.0308 7.4987 2.58333 7.4987H3ZM1.75 9.58203V16.2487C1.75 16.4697 1.8378 16.6817 1.99408 16.838C2.15036 16.9942 2.36232 17.082 2.58333 17.082H13.4167C13.6377 17.082 13.8496 16.9942 14.0059 16.838C14.1622 16.6817 14.25 16.4697 14.25 16.2487V9.58203C14.25 9.36102 14.1622 9.14906 14.0059 8.99278C13.8496 8.8365 13.6377 8.7487 13.4167 8.7487H2.58333C2.36232 8.7487 2.15036 8.8365 1.99408 8.99278C1.8378 9.14906 1.75 9.36102 1.75 9.58203ZM4.25 6.04036V7.4987H11.75V6.04036C11.75 3.81536 10.1483 2.08203 8 2.08203C5.85167 2.08203 4.25 3.81536 4.25 6.04036Z" fill="#303030"/>
</svg>
