<svg width="44" height="44" viewBox="0 0 44 44" fill="none" xmlns="http://www.w3.org/2000/svg">
<path d="M22 1.83334L5.5 9.16668V20.1667C5.5 30.3417 12.54 39.8567 22 42.1667C31.46 39.8567 38.5 30.3417 38.5 20.1667V9.16668L22 1.83334ZM22 12.8333C24.5667 12.8333 27.1333 14.85 27.1333 17.4167V20.1667C28.2333 20.1667 29.3333 21.2667 29.3333 22.55V28.9667C29.3333 30.0667 28.2333 31.1667 26.95 31.1667H16.8667C15.7667 31.1667 14.6667 30.0667 14.6667 28.7833V22.3667C14.6667 21.2667 15.7667 20.1667 16.8667 20.1667V17.4167C16.8667 14.85 19.4333 12.8333 22 12.8333ZM22 15.0333C20.5333 15.0333 19.25 15.95 19.25 17.4167V20.1667H24.75V17.4167C24.75 15.95 23.4667 15.0333 22 15.0333Z" fill="white"/>
</svg>
