<svg width="25" height="24" viewBox="0 0 25 24" fill="none" xmlns="http://www.w3.org/2000/svg">
<path d="M10.5 18.933H14.5C14.6326 18.933 14.7598 18.8803 14.8536 18.7865C14.9473 18.6928 15 18.5656 15 18.433C15 18.3004 14.9473 18.1732 14.8536 18.0794C14.7598 17.9857 14.6326 17.933 14.5 17.933H10.5C10.3674 17.933 10.2402 17.9857 10.1464 18.0794C10.0527 18.1732 10 18.3004 10 18.433C10 18.5656 10.0527 18.6928 10.1464 18.7865C10.2402 18.8803 10.3674 18.933 10.5 18.933Z" fill="#505050"/>
<path d="M17.227 21.937H7.77304C7.14565 21.8996 6.55842 21.6159 6.13912 21.1477C5.71981 20.6795 5.50235 20.0647 5.53404 19.437V4.56299C5.50235 3.93528 5.71981 3.32045 6.13912 2.85227C6.55842 2.38408 7.14565 2.10042 7.77304 2.06299H17.227C17.8544 2.10042 18.4417 2.38408 18.861 2.85227C19.2803 3.32045 19.4977 3.93528 19.466 4.56299V19.437C19.4977 20.0647 19.2803 20.6795 18.861 21.1477C18.4417 21.6159 17.8544 21.8996 17.227 21.937ZM7.77304 3.06299C7.41133 3.10119 7.079 3.27966 6.84737 3.56009C6.61573 3.84052 6.50325 4.20057 6.53404 4.56299V19.437C6.50325 19.7994 6.61573 20.1595 6.84737 20.4399C7.079 20.7203 7.41133 20.8988 7.77304 20.937H17.227C17.5888 20.8988 17.9211 20.7203 18.1527 20.4399C18.3844 20.1595 18.4968 19.7994 18.466 19.437V4.56299C18.4968 4.20057 18.3844 3.84052 18.1527 3.56009C17.9211 3.27966 17.5888 3.10119 17.227 3.06299H7.77304Z" fill="#505050"/>
</svg>
